<svg width="26" height="26" viewBox="0 0 26 26" fill="none" xmlns="http://www.w3.org/2000/svg">
<path d="M11.8125 16.6875L9.5 19C9.0125 19.4875 8.2375 19.4875 7.7375 19.0125C7.6 18.875 7.4625 18.75 7.325 18.6125C6.0375 17.3125 4.875 15.95 3.8375 14.525C2.8125 13.1 1.9875 11.675 1.3875 10.2625C0.8 8.8375 0.5 7.475 0.5 6.175C0.5 5.325 0.65 4.5125 0.95 3.7625C1.25 3 1.725 2.3 2.3875 1.675C3.1875 0.8875 4.0625 0.5 4.9875 0.5C5.3375 0.5 5.6875 0.575 6 0.725C6.325 0.875 6.6125 1.1 6.8375 1.425L9.7375 5.5125C9.9625 5.825 10.125 6.1125 10.2375 6.3875C10.35 6.65 10.4125 6.9125 10.4125 7.15C10.4125 7.45 10.325 7.75 10.15 8.0375C9.9875 8.325 9.75 8.625 9.45 8.925L8.5 9.9125C8.3625 10.05 8.3 10.2125 8.3 10.4125C8.3 10.5125 8.3125 10.6 8.3375 10.7C8.375 10.8 8.4125 10.875 8.4375 10.95C8.6625 11.3625 9.05 11.9 9.6 12.55C10.1625 13.2 10.7625 13.8625 11.4125 14.525C11.5375 14.65 11.675 14.775 11.8 14.9C12.3 15.3875 12.3125 16.1875 11.8125 16.6875Z" fill="#FFD700"/>
<path d="M25.4625 20.9125C25.4625 21.2625 25.4 21.625 25.275 21.975C25.2375 22.075 25.2 22.175 25.15 22.275C24.9375 22.725 24.6625 23.15 24.3 23.55C23.6875 24.225 23.0125 24.7126 22.25 25.0251C22.2375 25.0251 22.225 25.0375 22.2125 25.0375C21.475 25.3375 20.675 25.5 19.8125 25.5C18.5375 25.5 17.175 25.2 15.7375 24.5875C14.3 23.975 12.8625 23.1501 11.4375 22.1125C10.95 21.7501 10.4625 21.3875 10 21L14.0875 16.9125C14.4375 17.175 14.75 17.375 15.0125 17.5125C15.075 17.5375 15.15 17.575 15.2375 17.6125C15.3375 17.65 15.4375 17.6625 15.55 17.6625C15.7625 17.6625 15.925 17.5875 16.0625 17.45L17.0125 16.5125C17.325 16.2 17.625 15.9625 17.9125 15.8125C18.2 15.6375 18.4875 15.55 18.8 15.55C19.0375 15.55 19.2875 15.6 19.5625 15.7125C19.8375 15.825 20.125 15.9875 20.4375 16.2L24.575 19.1375C24.9 19.3625 25.125 19.625 25.2625 19.9375C25.3875 20.25 25.4625 20.5625 25.4625 20.9125Z" fill="#FFD700"/>
</svg>
