<svg width="22" height="22" viewBox="0 0 22 22" fill="none" xmlns="http://www.w3.org/2000/svg">
<path d="M10.1293 13.7042L8.4335 15.4C8.076 15.7575 7.50766 15.7575 7.141 15.4092C7.04016 15.3084 6.93933 15.2167 6.8385 15.1159C5.89433 14.1625 5.04183 13.1634 4.281 12.1184C3.52933 11.0734 2.92433 10.0284 2.48433 8.99254C2.0535 7.94754 1.8335 6.94837 1.8335 5.99504C1.8335 5.37171 1.9435 4.77587 2.1635 4.22587C2.3835 3.66671 2.73183 3.15337 3.21766 2.69504C3.80433 2.11754 4.446 1.83337 5.12433 1.83337C5.381 1.83337 5.63766 1.88837 5.86683 1.99837C6.10516 2.10837 6.316 2.27337 6.481 2.51171L8.60766 5.50921C8.77266 5.73837 8.89183 5.94921 8.97433 6.15087C9.05683 6.34337 9.10266 6.53587 9.10266 6.71004C9.10266 6.93004 9.0385 7.15004 8.91016 7.36087C8.791 7.57171 8.61683 7.79171 8.39683 8.01171L7.70016 8.73587C7.59933 8.83671 7.5535 8.95587 7.5535 9.10254C7.5535 9.17587 7.56266 9.24004 7.581 9.31337C7.6085 9.38671 7.636 9.44171 7.65433 9.49671C7.81933 9.79921 8.1035 10.1934 8.50683 10.67C8.91933 11.1467 9.35933 11.6325 9.836 12.1184C9.92766 12.21 10.0285 12.3017 10.1202 12.3934C10.4868 12.7509 10.496 13.3375 10.1293 13.7042Z" fill="#292D32"/>
<path d="M20.139 16.8025C20.139 17.0592 20.0931 17.325 20.0015 17.5817C19.974 17.655 19.9465 17.7283 19.9098 17.8017C19.754 18.1317 19.5523 18.4433 19.2865 18.7367C18.8373 19.2317 18.3423 19.5892 17.7831 19.8183C17.774 19.8183 17.7648 19.8275 17.7556 19.8275C17.2148 20.0475 16.6281 20.1667 15.9956 20.1667C15.0606 20.1667 14.0615 19.9467 13.0073 19.4975C11.9531 19.0483 10.899 18.4433 9.85397 17.6825C9.49647 17.4167 9.13897 17.1508 8.7998 16.8667L11.7973 13.8692C12.054 14.0617 12.2831 14.2083 12.4756 14.3092C12.5215 14.3275 12.5765 14.355 12.6406 14.3825C12.714 14.41 12.7873 14.4192 12.8698 14.4192C13.0256 14.4192 13.1448 14.3642 13.2456 14.2633L13.9423 13.5758C14.1715 13.3467 14.3915 13.1725 14.6023 13.0625C14.8131 12.9342 15.024 12.87 15.2531 12.87C15.4273 12.87 15.6106 12.9067 15.8123 12.9892C16.014 13.0717 16.2248 13.1908 16.454 13.3467L19.4881 15.5008C19.7265 15.6658 19.8915 15.8583 19.9923 16.0875C20.084 16.3167 20.139 16.5458 20.139 16.8025Z" fill="#292D32"/>
</svg>
