<svg width="30" height="30" viewBox="0 0 30 30" fill="none" xmlns="http://www.w3.org/2000/svg">
<path d="M23.9001 11.4C23.4126 11.4 23.0251 11.7875 23.0251 12.275V14.25C23.0251 18.675 19.4251 22.275 15.0001 22.275C10.5751 22.275 6.9751 18.675 6.9751 14.25V12.2625C6.9751 11.775 6.5876 11.3875 6.1001 11.3875C5.6126 11.3875 5.2251 11.775 5.2251 12.2625V14.2375C5.2251 19.325 9.1376 23.5125 14.1251 23.9625V26.625C14.1251 27.1125 14.5126 27.5 15.0001 27.5C15.4876 27.5 15.8751 27.1125 15.8751 26.625V23.9625C20.8501 23.525 24.7751 19.325 24.7751 14.2375V12.2625C24.7626 11.7875 24.3751 11.4 23.9001 11.4Z" fill="#FFD700"/>
<path d="M15.0001 2.5C11.9501 2.5 9.4751 4.975 9.4751 8.025V14.425C9.4751 17.475 11.9501 19.95 15.0001 19.95C18.0501 19.95 20.5251 17.475 20.5251 14.425V8.025C20.5251 4.975 18.0501 2.5 15.0001 2.5ZM16.6376 11.1875C16.5501 11.5125 16.2626 11.725 15.9376 11.725C15.8751 11.725 15.8126 11.7125 15.7501 11.7C15.2626 11.5625 14.7501 11.5625 14.2626 11.7C13.8626 11.8125 13.4751 11.575 13.3751 11.1875C13.2626 10.8 13.5001 10.4 13.8876 10.3C14.6251 10.1 15.4001 10.1 16.1376 10.3C16.5126 10.4 16.7376 10.8 16.6376 11.1875ZM17.3001 8.7625C17.1876 9.0625 16.9126 9.2375 16.6126 9.2375C16.5251 9.2375 16.4501 9.225 16.3626 9.2C15.4876 8.875 14.5126 8.875 13.6376 9.2C13.2626 9.3375 12.8376 9.1375 12.7001 8.7625C12.5626 8.3875 12.7626 7.9625 13.1376 7.8375C14.3376 7.4 15.6626 7.4 16.8626 7.8375C17.2376 7.975 17.4376 8.3875 17.3001 8.7625Z" fill="#FFD700"/>
</svg>
