<svg width="28" height="28" viewBox="0 0 28 28" fill="none" xmlns="http://www.w3.org/2000/svg">
<path d="M18.8301 3.45338L8.29514 6.95338C1.21347 9.32172 1.21347 13.1834 8.29514 15.54L11.4218 16.5784L12.4601 19.705C14.8168 26.7867 18.6901 26.7867 21.0468 19.705L24.5585 9.18172C26.1218 4.45672 23.5551 1.87838 18.8301 3.45338ZM19.2035 9.73005L14.7701 14.1867C14.5951 14.3617 14.3735 14.4434 14.1518 14.4434C13.9301 14.4434 13.7085 14.3617 13.5335 14.1867C13.1951 13.8484 13.1951 13.2884 13.5335 12.9501L17.9668 8.49338C18.3051 8.15505 18.8651 8.15505 19.2035 8.49338C19.5418 8.83172 19.5418 9.39172 19.2035 9.73005Z" fill="#292D32"/>
</svg>
