<svg width="30" height="30" viewBox="0 0 30 30" fill="none" xmlns="http://www.w3.org/2000/svg">
<path d="M24.1625 20.9375C23.9625 20.9375 23.775 20.875 23.6 20.75C23.1875 20.4375 23.1 19.85 23.4125 19.4375C25.375 16.825 25.375 13.175 23.4125 10.5625C23.1 10.15 23.1875 9.56247 23.6 9.24997C24.0125 8.93747 24.6 9.02497 24.9125 9.43747C27.375 12.7125 27.375 17.2875 24.9125 20.5625C24.7375 20.8125 24.45 20.9375 24.1625 20.9375Z" fill="#FFD700"/>
<path d="M19.1876 4.72502C17.7876 3.95002 16.0001 4.15002 14.1751 5.28752L10.5251 7.57502C10.2751 7.72502 9.9876 7.81252 9.7001 7.81252H8.5376H7.9126C4.8876 7.81252 3.2251 9.47502 3.2251 12.5V17.5C3.2251 20.525 4.8876 22.1875 7.9126 22.1875H8.5376H9.7001C9.9876 22.1875 10.2751 22.275 10.5251 22.425L14.1751 24.7125C15.2751 25.4 16.3501 25.7375 17.3501 25.7375C18.0001 25.7375 18.6251 25.5875 19.1876 25.275C20.5751 24.5 21.3501 22.8875 21.3501 20.7375V9.26252C21.3501 7.11252 20.5751 5.50002 19.1876 4.72502Z" fill="#FFD700"/>
</svg>
